<?xml version="1.0" encoding="UTF-8"?>
<svg width="71px" height="128px" viewBox="0 0 71 128" version="1.1" xmlns="http://www.w3.org/2000/svg" xmlns:xlink="http://www.w3.org/1999/xlink">
    <!-- Generator: Sketch 52.5 (67469) - http://www.bohemiancoding.com/sketch -->
    <title>Group 8</title>
    <desc>Created with Sketch.</desc>
    <defs>
        <polygon id="path-1" points="0 127.254943 70.9916981 127.254943 70.9916981 0 0 0"></polygon>
    </defs>
    <g id="Page-1" stroke="none" stroke-width="1" fill="none" fill-rule="evenodd">
        <g id="Desktop-HD-Copy-3" transform="translate(-1117.000000, -1348.000000)">
            <g id="Group-8" transform="translate(1117.000000, 1348.000000)">
                <mask id="mask-2" fill="white">
                    <use xlink:href="#path-1"></use>
                </mask>
                <g id="Clip-5"></g>
                <path d="M27.6350792,113.299683 C25.195834,114.079758 20.9525132,115.059079 19.9079849,112.82874 C19.6230038,112.224966 19.7461736,111.021042 20.6602868,109.69274 C21.3968906,108.620438 24.2237585,105.338325 31.1273057,105.338325 C31.6646642,105.338325 32.2273811,105.357645 32.8154566,105.399909 C34.7100981,105.536362 36.8220981,106.254853 39.0367396,107.377872 C35.488966,109.898023 31.5656453,112.040211 27.6350792,113.299683 M58.0145509,106.138928 C62.9751547,100.138626 65.9819472,93.5864755 64.8999849,87.7045132 C62.0682868,72.3082868 43.5384755,73.6257208 33.5858717,74.3309283 C32.5425509,74.4057962 31.5028528,74.5072302 30.4704,74.6267774 L38.1950792,67.4829283 L29.9970415,58.617117 L5.2749283,81.4759849 L11.5155321,91.5541736 C11.6314566,91.5107019 23.1816453,87.1768151 34.4420226,86.3762113 C47.1780226,85.4741736 52.3922113,86.4559094 53.0225509,89.8877585 C53.3860226,91.8572679 51.5783245,95.2432302 48.4519849,98.8827774 C43.7027019,95.9013434 38.6310038,93.7132679 33.6860981,93.355834 C23.8590792,92.6421736 15.2818717,96.1984 10.707683,102.853192 C7.42677736,107.627834 6.77832453,113.274325 8.97485283,117.955985 C12.5491925,125.580438 20.9030038,128.136815 31.3217208,124.799155 C36.9814943,122.985419 43.5203623,119.280664 49.3298717,114.608664 C54.1226264,118.749343 58.5664,123.530023 61.523683,127.255306 L70.9908528,119.758853 C69.9765132,118.477645 64.9217208,112.237042 58.0145509,106.138928" id="Fill-1" fill="#FFFFFF" mask="url(#mask-2)"></path>
                <polygon id="Fill-4" fill="#FFFFFF" mask="url(#mask-2)" points="7.35275472 12.0754717 65.3790189 12.0754717 65.3790189 0 7.35275472 0"></polygon>
                <path d="M7.11269434,47.7153811 L-0.000966037736,37.9584 C14.2227321,27.5879849 27.0130717,15.7660981 36.9898264,3.76790943 L46.2758642,11.4901736 C35.6699774,24.2406642 22.1297509,36.7677585 7.11269434,47.7153811" id="Fill-6" fill="#FFFFFF" mask="url(#mask-2)"></path>
                <path d="M33.8119245,31.653434 C29.152,31.653434 25.3590943,35.4451321 25.3590943,40.1062642 L25.3590943,47.3515472 C25.3590943,52.0126792 29.152,55.8043774 33.8119245,55.8043774 L45.8873962,55.8043774 C50.5473208,55.8043774 54.3402264,52.0126792 54.3402264,47.3515472 L54.3402264,40.1062642 C54.3402264,35.4451321 50.5473208,31.653434 45.8873962,31.653434 L33.8119245,31.653434 Z M45.8873962,67.8798491 L33.8119245,67.8798491 C22.4923774,67.8798491 13.2836226,58.6710943 13.2836226,47.3515472 L13.2836226,40.1062642 C13.2836226,28.786717 22.4923774,19.5779623 33.8119245,19.5779623 L45.8873962,19.5779623 C57.2069434,19.5779623 66.4156981,28.786717 66.4156981,40.1062642 L66.4156981,47.3515472 C66.4156981,58.6710943 57.2069434,67.8798491 45.8873962,67.8798491 Z" id="Fill-7" fill="#FFFFFF" mask="url(#mask-2)"></path>
            </g>
        </g>
    </g>
</svg>