<?xml version="1.0" encoding="UTF-8"?>
<svg width="64px" height="64px" viewBox="0 0 64 64" version="1.1" xmlns="http://www.w3.org/2000/svg" xmlns:xlink="http://www.w3.org/1999/xlink">
    <!-- Generator: Sketch 52.5 (67469) - http://www.bohemiancoding.com/sketch -->
    <title>logo</title>
    <desc>Created with Sketch.</desc>
    <g id="Page-1" stroke="none" stroke-width="1" fill="none" fill-rule="evenodd">
        <g id="Desktop-HD-Copy-3" transform="translate(-218.000000, -24.000000)">
            <g id="logo" transform="translate(218.000000, 24.000000)">
                <path d="M8,0 L56,0 C60.418278,-8.11624501e-16 64,3.581722 64,8 L64,56 C64,60.418278 60.418278,64 56,64 L8,64 C3.581722,64 5.41083001e-16,60.418278 0,56 L0,8 C-5.41083001e-16,3.581722 3.581722,8.11624501e-16 8,0 Z" id="grid" fill="#FFFFFF"></path>
                <g transform="translate(17.000000, 5.000000)" fill="#324664">
                    <path d="M11.6585491,47.7983038 C10.6294925,48.1273981 8.83934151,48.5405491 8.39868113,47.5996245 C8.27845472,47.3449075 8.33041698,46.8370019 8.71605849,46.2766245 C9.02681321,45.8242472 10.2193981,44.4396057 13.1318321,44.4396057 C13.3585302,44.4396057 13.5959264,44.4477566 13.8440208,44.4655868 C14.6433226,44.5231528 15.5343226,44.826266 16.4686245,45.3000396 C14.9719075,46.3632283 13.3167566,47.2669642 11.6585491,47.7983038 M24.4748887,44.7773604 C26.5676434,42.245983 27.836134,39.4817943 27.3796811,37.0003415 C26.1850585,30.5050585 18.3677943,31.0608509 14.1690396,31.3583604 C13.7288887,31.3899453 13.290266,31.4327377 12.8547,31.4831717 L16.1135491,28.4693604 L12.6550019,24.7290962 L2.22536038,34.3726811 L4.85811509,38.624417 C4.90702075,38.6060774 9.7797566,36.7777189 14.5302283,36.4399642 C19.9032283,36.059417 22.1029642,36.4735868 22.3688887,37.9213981 C22.5222283,38.7522849 21.7596057,40.1807377 20.4406811,41.7161717 C18.4370774,40.4583792 16.2974547,39.5352849 14.2113226,39.3844925 C10.0655491,39.083417 6.44703962,40.5837 4.51730377,43.3911906 C3.1331717,45.4054925 2.85960566,47.7876057 3.78626604,49.7626811 C5.29419057,52.9792472 8.81845472,54.0577189 13.2138509,52.6496434 C15.6015679,51.8844736 18.3601528,50.3215302 20.8110396,48.3505302 C22.832983,50.0973792 24.7077,52.1142283 25.9553038,53.6858321 L29.949266,50.523266 C29.5213415,49.9827566 27.3888509,47.3500019 24.4748887,44.7773604" id="Fill-1"></path>
                    <polygon id="Fill-4" points="3.1019434 5.09433962 27.5817736 5.09433962 27.5817736 0 3.1019434 0"></polygon>
                    <path d="M3.00066792,20.1299264 L-0.00040754717,16.0137 C6.00021509,11.6386811 11.3961396,6.65132264 15.605083,1.58958679 L19.5226302,4.84741698 C15.0482717,10.2265302 9.33598868,15.5113981 3.00066792,20.1299264" id="Fill-6"></path>
                    <path d="M14.2644057,13.3537925 C12.2985,13.3537925 10.6983679,14.9534151 10.6983679,16.9198302 L10.6983679,19.976434 C10.6983679,21.9428491 12.2985,23.5424717 14.2644057,23.5424717 L19.3587453,23.5424717 C21.3246509,23.5424717 22.924783,21.9428491 22.924783,19.976434 L22.924783,16.9198302 C22.924783,14.9534151 21.3246509,13.3537925 19.3587453,13.3537925 L14.2644057,13.3537925 Z M19.3587453,28.6368113 L14.2644057,28.6368113 C9.4889717,28.6368113 5.6040283,24.7518679 5.6040283,19.976434 L5.6040283,16.9198302 C5.6040283,12.1443962 9.4889717,8.25945283 14.2644057,8.25945283 L19.3587453,8.25945283 C24.1341792,8.25945283 28.0191226,12.1443962 28.0191226,16.9198302 L28.0191226,19.976434 C28.0191226,24.7518679 24.1341792,28.6368113 19.3587453,28.6368113 Z" id="Fill-7"></path>
                </g>
            </g>
        </g>
    </g>
</svg>