<svg id="图层_1" data-name="图层 1" xmlns="http://www.w3.org/2000/svg" xmlns:xlink="http://www.w3.org/1999/xlink" viewBox="0 0 148 48"><defs><style>.cls-1{fill:none;clip-rule:evenodd;}.cls-2{clip-path:url(#clip-path);}.cls-3,.cls-4{fill:#ff6d6d;}.cls-3,.cls-6{fill-rule:evenodd;}.cls-5,.cls-6{fill:#324664;}</style><clipPath id="clip-path"><path class="cls-1" d="M283.66-397.77h4.72c-.57,3.7-3.94,6.17-8.6,6.17-5.8,0-9.28-3.7-9.28-9.73s3.51-9.92,9.09-9.92,8.94,3.71,8.94,9.44v1.57h-13v.31a4.2,4.2,0,0,0,4.33,4.54A3.73,3.73,0,0,0,283.66-397.77Zm-4-9.68a4.07,4.07,0,0,0-4,4.06h8A3.9,3.9,0,0,0,279.64-407.45Zm-8.2-3.39L265-392h-5.8l-6.53-18.84h5.51l3.92,14.3h.1l3.9-14.3Zm-27.26,15.32c2.51,0,4.11-2.12,4.11-5.9s-1.62-5.91-4.11-5.91-4.13,2.16-4.13,5.91S241.65-395.52,244.18-395.52Zm0,3.92c-5.7,0-9.34-3.65-9.34-9.84s3.7-9.81,9.34-9.81,9.33,3.69,9.33,9.81S249.87-391.6,244.18-391.6Zm-15.75-.4v-25.37h5.14V-392Zm-5.28.21a2.81,2.81,0,0,1-2.83-2.83,2.81,2.81,0,0,1,2.83-2.83,2.82,2.82,0,0,1,2.83,2.83A2.83,2.83,0,0,1,223.15-391.79ZM200.57-392v-18.84h5v3.35h.11a6,6,0,0,1,5.89-3.71c4.18,0,6.54,2.64,6.54,7.05V-392h-5.14v-11.07c0-2.47-1.16-3.87-3.46-3.87s-3.76,1.69-3.76,4.13V-392Zm-4.48-20.92a2.67,2.67,0,0,1-2.74-2.65,2.66,2.66,0,0,1,2.74-2.66,2.66,2.66,0,0,1,2.74,2.66A2.67,2.67,0,0,1,196.09-412.92ZM193.52-392v-18.84h5.14V-392Zm-7.18,0v-25.37h5.13V-392Zm-7.22,0v-25.37h5.13V-392Zm-7.22,0v-25.37H177V-392Zm-12.74.3c-3.58,0-6.31-2.32-6.31-5.71s2.64-5.42,7.33-5.7l4.75-.28v-1.25c0-1.76-1.23-2.78-3.16-2.78s-3.13.95-3.38,2.34H153.7c.19-3.65,3.3-6.17,8.29-6.17,4.84,0,8,2.5,8,6.29v13H165v-2.88h-.11A6.48,6.48,0,0,1,159.16-391.7Zm1.69-3.71c2.23,0,4.08-1.46,4.08-3.5v-1.37l-4,.25c-1.92.14-3,1-3,2.33S159.11-395.41,160.85-395.41ZM144.6-392v-15H142v-3.78h2.57v-1.42c0-3.69,1.74-5.41,6.2-5.41a15.36,15.36,0,0,1,2.62.22v3.4a8,8,0,0,0-1.39-.11c-1.68,0-2.42.74-2.42,2.08v1.24h3.74V-407h-3.62v15Z"/></clipPath></defs><title>logo2</title><path class="cls-3" d="M147.25,28.67V27.1c0-5.73-3.46-9.44-8.95-9.44s-9.08,3.91-9.08,9.92,3.48,9.74,9.28,9.74c4.66,0,8-2.48,8.59-6.17h-4.71a3.74,3.74,0,0,1-3.8,2.37A4.2,4.2,0,0,1,134.26,29v-.31Zm-8.89-7.21a3.9,3.9,0,0,1,3.95,4.06h-8A4.09,4.09,0,0,1,138.36,21.46Z"/><polygon class="cls-3" points="130.15 18.07 123.69 36.91 117.88 36.91 111.36 18.07 116.86 18.07 120.78 32.38 120.89 32.38 124.79 18.07 130.15 18.07"/><path class="cls-3" d="M102.9,17.66c-5.65,0-9.34,3.71-9.34,9.81s3.64,9.85,9.34,9.85,9.33-3.64,9.33-9.85S108.54,17.66,102.9,17.66Zm0,15.74c-2.54,0-4.14-2.13-4.14-5.91s1.64-5.91,4.14-5.91S107,23.75,107,27.49,105.41,33.4,102.9,33.4Z"/><rect class="cls-4" x="87.15" y="11.55" width="5.13" height="25.37"/><circle class="cls-5" cx="81.87" cy="34.29" r="2.83"/><path class="cls-6" d="M59.28,36.91V18.07h5v3.35h.11a6,6,0,0,1,5.89-3.7c4.18,0,6.53,2.63,6.53,7V36.91H71.64V25.84c0-2.46-1.16-3.87-3.46-3.87s-3.76,1.69-3.76,4.13V36.91Z"/><ellipse class="cls-5" cx="54.81" cy="13.34" rx="2.74" ry="2.65"/><rect class="cls-5" x="52.24" y="18.07" width="5.13" height="18.84"/><rect class="cls-5" x="45.06" y="11.55" width="5.13" height="25.37"/><rect class="cls-5" x="37.84" y="11.55" width="5.13" height="25.37"/><rect class="cls-5" x="30.62" y="11.55" width="5.13" height="25.37"/><path class="cls-6" d="M20.71,17.66c-5,0-8.1,2.52-8.29,6.17h4.69c.24-1.39,1.46-2.33,3.37-2.33s3.17,1,3.17,2.77v1.25l-4.75.28c-4.69.28-7.33,2.27-7.33,5.7s2.73,5.71,6.31,5.71A6.48,6.48,0,0,0,23.63,34h.11v2.88h5V24C28.69,20.16,25.55,17.66,20.71,17.66ZM23.65,30c0,2-1.85,3.5-4.08,3.5-1.74,0-2.9-.88-2.9-2.28s1.09-2.2,3-2.34l4-.25Z"/><path class="cls-6" d="M3.32,36.91v-15H.75V18.16H3.32V16.73c0-3.69,1.74-5.41,6.2-5.41a14.3,14.3,0,0,1,2.62.23v3.39a8,8,0,0,0-1.39-.11c-1.69,0-2.42.74-2.42,2.08v1.25h3.74v3.77H8.45v15Z"/></svg>