<?xml version="1.0" encoding="UTF-8"?>
<svg width="68px" height="126px" viewBox="0 0 68 126" version="1.1" xmlns="http://www.w3.org/2000/svg" xmlns:xlink="http://www.w3.org/1999/xlink">
    <!-- Generator: Sketch 52.5 (67469) - http://www.bohemiancoding.com/sketch -->
    <title>Group 7</title>
    <desc>Created with Sketch.</desc>
    <defs>
        <polygon id="path-1" points="0.383753329 0.190036833 64.9808456 0.190036833 64.9808456 67.6583351 0.383753329 67.6583351"></polygon>
        <polygon id="path-3" points="0 0.73367749 64.0446679 0.73367749 64.0446679 67.4578528 0 67.4578528"></polygon>
    </defs>
    <g id="Page-1" stroke="none" stroke-width="1" fill="none" fill-rule="evenodd">
        <g id="Desktop-HD-Copy-3" transform="translate(-1118.000000, -1349.000000)">
            <g id="Group-7" transform="translate(1118.000000, 1348.000000)">
                <g id="Group-3" transform="translate(2.373977, 58.615858)">
                    <mask id="mask-2" fill="white">
                        <use xlink:href="#path-1"></use>
                    </mask>
                    <g id="Clip-2"></g>
                </g>
                <g id="Group-6" transform="translate(0.000000, 0.453430)">
                    <mask id="mask-4" fill="white">
                        <use xlink:href="#path-3"></use>
                    </mask>
                    <g id="Clip-5"></g>
                </g>
                <path d="M26.2945217,112.470824 C24.4784296,113.089245 18.4509028,114.891094 17.1404677,112.095736 C16.8627124,111.502242 16.9825982,110.317628 17.8811484,109.010753 C18.6040243,107.956708 21.382764,104.731661 28.1675893,104.731661 C28.6969861,104.731661 29.2513097,104.751839 29.829373,104.793384 C31.8959197,104.941757 34.2271648,105.794015 36.6652388,107.112759 C33.4639313,109.334801 29.9136491,111.238731 26.2945217,112.470824 M55.1786959,106.034974 C59.9551369,100.086975 62.7125108,93.4505234 61.3237345,87.1867859 C58.0239069,72.3019522 38.0896248,73.7204033 30.5854845,74.253361 C29.5599266,74.3257673 28.5391167,74.4254743 27.5242416,74.5429862 L35.117406,67.5207632 L27.0589422,58.8058948 L2.75773,81.276771 L8.89208572,91.1821887 C9.0060366,91.1394571 20.360767,86.879356 31.4270593,86.0923827 C45.6721063,85.0798816 49.2413802,87.5262646 49.7351674,89.7554287 C50.2301415,91.9857798 48.6775608,95.3117211 45.8323497,98.7895969 C40.9835024,95.6535737 35.7666886,93.3211417 30.6840046,92.9543623 C21.0432853,92.270657 12.5954893,95.7461588 8.09917751,102.286465 C4.87294322,106.981003 4.23553048,112.531361 6.39347527,117.135689 C10.1051878,125.048153 18.9755516,127.506406 30.1225591,123.706856 C35.4628196,121.88839 41.4036962,118.567197 46.6762984,114.379502 C51.1512445,118.322677 55.270094,122.772696 58.0488337,126.274312 L67.3548222,118.906675 C66.3874267,117.684077 61.6703351,111.860712 55.1786959,106.034974" id="Fill-1" fill="#FFFFFF"></path>
                <path d="M52.1747845,47.7324806 C52.1747845,52.3142556 48.4464541,56.041399 43.8658661,56.041399 L31.9959828,56.041399 C27.4142078,56.041399 23.6870644,52.3142556 23.6870644,47.7324806 L23.6870644,40.6105506 C23.6870644,36.0287757 27.4142078,32.3016323 31.9959828,32.3016323 L43.8658661,32.3016323 C48.4464541,32.3016323 52.1747845,36.0287757 52.1747845,40.6105506 L52.1747845,47.7324806 Z M43.8658661,20.4317489 L37.2258534,20.4317489 C39.4668874,18.0221626 41.646198,15.5686577 43.7531023,13.0569904 L63.0262319,13.0569904 L63.0262319,1.18710703 L5.98788136,1.18710703 L5.98788136,13.0569904 L27.8842552,13.0569904 C19.6928487,21.7682978 10.503185,29.8220136 -0.000474795335,37.4792754 L6.99326048,47.0701412 C8.63367836,45.8748439 10.2349256,44.6664898 11.8171811,43.4498267 L11.8171811,47.7324806 C11.8171811,58.8593093 20.8691541,67.9112824 31.9959828,67.9112824 L43.8658661,67.9112824 C54.9926948,67.9112824 64.0446679,58.8593093 64.0446679,47.7324806 L64.0446679,40.6105506 C64.0446679,29.483722 54.9926948,20.4317489 43.8658661,20.4317489 Z" id="Fill-4" fill="#FFFFFF"></path>
            </g>
        </g>
    </g>
</svg>