<?xml version="1.0" encoding="UTF-8"?>
<svg width="64px" height="64px" viewBox="0 0 64 64" version="1.1" xmlns="http://www.w3.org/2000/svg" xmlns:xlink="http://www.w3.org/1999/xlink">
    <!-- Generator: Sketch 52.5 (67469) - http://www.bohemiancoding.com/sketch -->
    <title>logo</title>
    <desc>Created with Sketch.</desc>
    <g id="Page-1" stroke="none" stroke-width="1" fill="none" fill-rule="evenodd">
        <g id="Desktop-HD-Copy-3" transform="translate(-218.000000, -24.000000)">
            <g id="logo" transform="translate(218.000000, 24.000000)">
                <path d="M8,0 L56,0 C60.418278,-8.11624501e-16 64,3.581722 64,8 L64,56 C64,60.418278 60.418278,64 56,64 L8,64 C3.581722,64 5.41083001e-16,60.418278 0,56 L0,8 C-5.41083001e-16,3.581722 3.581722,8.11624501e-16 8,0 Z" id="grid" fill="#FFFFFF"></path>
                <g transform="translate(18.000000, 5.000000)" fill="#324664">
                    <path d="M11.1796654,47.8193215 C10.4075159,48.0822561 7.84478692,48.8483495 7.28762804,47.6598449 C7.16953458,47.4075084 7.22050654,46.9038449 7.60254393,46.3482 C7.90988972,45.9000505 9.09132897,44.5288542 11.9760393,44.5288542 C12.2011234,44.5288542 12.4368056,44.5374336 12.6825813,44.5550972 C13.5612168,44.6181813 14.5523944,44.9805364 15.5889925,45.541228 C14.2278897,46.4859757 12.7184131,47.295471 11.1796654,47.8193215 M23.4603757,45.082985 C25.4911794,42.5540692 26.6635346,39.732443 26.0730673,37.0692841 C24.6700766,30.740686 16.1946,31.3437701 13.0040579,31.5703682 C12.5680206,31.6011533 12.1340019,31.6435458 11.7025065,31.6935084 L14.9308991,28.7078636 L11.5046748,25.0025551 L1.17250654,34.5565178 L3.78065607,38.7680131 C3.82910467,38.7498449 8.65680561,36.9385738 13.361871,36.6039757 C19.4184505,36.1734897 20.9360019,37.2136206 21.1459458,38.1613963 C21.3563944,39.1096766 20.6962822,40.5237701 19.4865813,42.0024617 C17.4249925,40.6691159 15.2069551,39.6774336 13.0459458,39.5214897 C8.94699252,39.2307981 5.35523551,40.7084804 3.44353458,43.489228 C2.07183364,45.4852093 1.8008243,47.8450598 2.71831963,49.802686 C4.29643178,53.1668355 8.06785234,54.2120131 12.8072355,52.5965551 C15.0777589,51.8233963 17.6036467,50.4113215 19.8454037,48.6308355 C21.7480206,50.3073589 23.4992355,52.1993776 24.6806748,53.6881626 L28.6373103,50.5556579 C28.2260019,50.0358449 26.2204318,47.5599196 23.4603757,45.082985" id="Fill-1"></path>
                    <path d="M22.1832,20.2944617 C22.1832,22.2424991 20.5980224,23.827172 18.6504897,23.827172 L13.6037607,23.827172 C11.6557234,23.827172 10.0710505,22.2424991 10.0710505,20.2944617 L10.0710505,17.2664243 C10.0710505,15.3183869 11.6557234,13.733714 13.6037607,13.733714 L18.6504897,13.733714 C20.5980224,13.733714 22.1832,15.3183869 22.1832,17.2664243 L22.1832,20.2944617 Z M18.6504897,8.68698505 L15.8273495,8.68698505 C16.780172,7.66249907 17.7067514,6.61934019 18.6025458,5.55145234 L26.7969196,5.55145234 L26.7969196,0.504723364 L2.5458729,0.504723364 L2.5458729,5.55145234 L11.8555738,5.55145234 C8.37282617,9.25524673 4.4656486,12.6794523 -0.000201869159,15.9350972 L2.97333084,20.0128542 C3.67078879,19.5046486 4.35159252,18.9908916 5.0243215,18.4736019 L5.0243215,20.2944617 C5.0243215,25.0252654 8.87295701,28.8739009 13.6037607,28.8739009 L18.6504897,28.8739009 C23.3812935,28.8739009 27.229929,25.0252654 27.229929,20.2944617 L27.229929,17.2664243 C27.229929,12.5356206 23.3812935,8.68698505 18.6504897,8.68698505 Z" id="Fill-4"></path>
                </g>
            </g>
        </g>
    </g>
</svg>