<?xml version="1.0" encoding="UTF-8"?>
<svg width="53px" height="48px" viewBox="0 0 53 48" version="1.1" xmlns="http://www.w3.org/2000/svg" xmlns:xlink="http://www.w3.org/1999/xlink">
    <!-- Generator: Sketch 52.5 (67469) - http://www.bohemiancoding.com/sketch -->
    <title>logo</title>
    <desc>Created with Sketch.</desc>
    <g id="Page-1" stroke="none" stroke-width="1" fill="none" fill-rule="evenodd">
        <g id="Desktop-HD-Copy-3" transform="translate(-223.000000, -32.000000)">
            <g id="logo" transform="translate(218.000000, 24.000000)">
                <g transform="translate(5.333333, 8.000000)">
                    <path d="M40.2184752,28.1819679 C36.1859282,28.1819679 32.9056274,31.4622687 32.9056274,35.4948157 C32.9056274,39.5269251 36.1859282,42.807226 40.2184752,42.807226 C44.2510222,42.807226 47.5313231,39.5269251 47.5313231,35.4948157 C47.5313231,31.4622687 44.2510222,28.1819679 40.2184752,28.1819679 M40.2184752,47.1832944 C33.7729641,47.1832944 28.529559,41.9394516 28.529559,35.4948157 C28.529559,29.0493046 33.7729641,23.8058995 40.2184752,23.8058995 C46.6639863,23.8058995 51.9073915,29.0493046 51.9073915,35.4948157 C51.9073915,41.9394516 46.6639863,47.1832944 40.2184752,47.1832944" id="Fill-1" fill="#FA7268"></path>
                    <path d="M40.2099419,21.0114297 C40.2099419,21.0114297 45.224041,17.0165169 46.7981128,15.5732896 C48.937135,13.6119357 53.604212,8.98686906 50.2486427,4.48827077 C46.0012308,-1.20630701 40.2099419,3.77147077 40.2099419,3.77147077 C40.2099419,3.77147077 34.3775179,-1.26100786 30.1708034,4.48827077 C26.8563692,9.01750154 31.4823111,13.6119357 33.6213333,15.5732896 C35.1954051,17.0165169 40.2099419,21.0114297 40.2099419,21.0114297" id="Fill-4" fill="#FA7268"></path>
                    <path d="M11.3860048,41.5986434 C9.58131419,42.3841477 7.44666803,42.8213169 7.0283159,41.9264109 C6.91760137,41.6909785 6.96223726,41.22624 7.31057231,40.7194913 C7.58626462,40.3177682 8.64439795,39.088093 11.2223398,39.088093 C11.4223262,39.088093 11.6319398,39.0955323 11.8507432,39.1112862 C12.6161176,39.1664246 13.4764526,39.4758126 14.3770475,39.9558674 C13.4777655,40.5610776 12.476521,41.1247152 11.3860048,41.5986434 M20.9726578,16.5320862 C20.9726578,19.5909579 18.1745997,22.079628 14.7345723,22.079628 C11.2949826,22.079628 8.49648684,19.5909579 8.49648684,16.5320862 C8.49648684,13.4732144 11.2949826,10.9845443 14.7345723,10.9845443 C18.1745997,10.9845443 20.9726578,13.4732144 20.9726578,16.5320862 M21.3205552,39.6232862 C23.3694304,37.230452 24.5037074,34.5619255 23.5536629,32.1970981 C22.0268526,28.3960451 16.6534783,27.3856109 12.1356253,27.7059391 C11.6402544,27.7409477 11.1461962,27.7917101 10.6582646,27.8538503 L12.3911877,26.2084485 C13.1456219,26.368175 13.9293757,26.4556964 14.7345723,26.4556964 C20.5871262,26.4556964 25.3487262,22.0039221 25.3487262,16.5320862 C25.3487262,11.0602503 20.5871262,6.6084759 14.7345723,6.6084759 C14.717068,6.6084759 14.700439,6.60935111 14.6833723,6.60978872 C15.2098133,6.01901949 15.7275022,5.42037333 16.2355638,4.81385026 L23.2556526,4.81385026 L23.2556526,0.43778188 L2.22733128,0.43778188 L2.22733128,4.81385026 L10.3970133,4.81385026 C7.23486632,8.21449299 3.75326632,11.3136246 -8.75213676e-05,14.0504178 L2.57785436,17.586281 C3.0990441,17.2060007 3.61191932,16.8152178 4.12348171,16.4222468 C4.1230441,16.4590058 4.12041846,16.4953272 4.12041846,16.5320862 C4.12041846,19.6526605 5.67042188,22.4402161 8.08776205,24.2606605 L1.66588171,30.357399 L3.94843897,33.9895357 C3.99176205,33.9733443 8.27199453,32.3673272 12.4458885,32.0710674 C16.2539432,31.7993135 19.0686304,32.7716759 19.4926715,33.8276212 C19.6843432,34.3046126 19.0861347,35.5303494 17.8498954,36.9372554 C16.0294509,35.7596554 14.0724732,34.8840041 12.1658202,34.7465956 C8.54812444,34.4875323 5.38772786,35.7920383 3.70425436,38.2404485 C2.49864752,39.9939391 2.26015179,42.0664451 3.06622359,43.7844896 C3.63292444,44.9935973 6.03451077,48.6988144 13.1316185,45.6119357 C14.7577655,44.9043255 16.5042544,43.8685101 18.1076458,42.6335836 C19.8388185,44.1442024 21.4373962,45.8670605 22.5082202,47.2162024 L25.9390578,44.4999768 C25.5727809,44.0374263 23.7816561,41.826199 21.3205552,39.6232862" id="Fill-6" fill="#324664"></path>
                </g>
            </g>
        </g>
    </g>
</svg>